# xmcd
#
# Track frame offsets: 
#        150
#        14935
#        33921
#        47182
#        60130
#        75217
#        93956
#        106365
#        117357
#        134059
#        144680
#        156882
#        180344
#        193063
#        216506
#        229137
#
# Disc length: 3226 seconds
#
# Revision: 0
# Processed by: cddbd v1.5.2PL0 Copyright (c) Steve Scherf et al.
# Submitted via: ExactAudioCopy v0.99pb5
#
DISCID=de0c9810
DTITLE=Marvin Gaya - 50 [CD3)
DYEAR=2007
DGENRE=Soul
TTITLE0=Mercy Mercy Me (The Ecology)
TTITLE1=Abraham, Martin and John
TTITLE2=How Sweet It Is (To Be Loved By You)
TTITLE3=Too Busy Thinking About My Baby
TTITLE4=I'll Never Stop Loving You Baby
TTITLE5=I'll Be Around
TTITLE6=Loving You Is Sweeter Then Ever
TTITLE7=Once Upon a Time
TTITLE8=Seek And You Shall Find
TTITLE9=Some Kind Of Wonderful
TTITLE10=Come get To This
TTITLE11=Ege Tripping Out
TTITLE12=Here, My Dear
TTITLE13=(I'm Afraid) The Masquerade Is Over
TTITLE14=You Ain't Livin' Till You're Lovin'
TTITLE15=Stop, Look, Listen (To Your Heart)
EXTD=
EXTT0=
EXTT1=
EXTT2=
EXTT3=
EXTT4=
EXTT5=
EXTT6=
EXTT7=
EXTT8=
EXTT9=
EXTT10=
EXTT11=
EXTT12=
EXTT13=
EXTT14=
EXTT15=
PLAYORDER=
